<svg width="21" height="20" viewBox="0 0 21 20" fill="none" xmlns="http://www.w3.org/2000/svg">
<path fill-rule="evenodd" clip-rule="evenodd" d="M14.525 9.25C14.525 11.5282 12.6782 13.375 10.4 13.375C8.12185 13.375 6.27502 11.5282 6.27502 9.25C6.27502 6.97183 8.12185 5.125 10.4 5.125C12.6771 5.12758 14.5224 6.9729 14.525 9.25ZM20.15 10C20.15 15.3848 15.7848 19.75 10.4 19.75C5.01525 19.75 0.650024 15.3848 0.650024 10C0.650024 4.61522 5.01525 0.25 10.4 0.25C15.7824 0.255684 20.1443 4.61758 20.15 10ZM18.65 10C18.6476 7.75631 17.7324 5.61017 16.1148 4.05525C14.4973 2.50033 12.3168 1.67047 10.0747 1.75656C5.65909 1.92719 2.13784 5.605 2.15002 10.0234C2.15426 12.0349 2.89611 13.9749 4.23502 15.4759C4.7803 14.6851 5.47294 14.0068 6.27502 13.4781C6.41557 13.3853 6.60077 13.3976 6.72784 13.5081C8.8347 15.3305 11.9597 15.3305 14.0666 13.5081C14.1937 13.3976 14.3789 13.3853 14.5194 13.4781C15.3225 14.0065 16.0161 14.6848 16.5622 15.4759C17.9077 13.9694 18.651 12.0199 18.65 10Z" fill="#171412"/>
</svg>
