<svg width="21" height="20" viewBox="0 0 21 20" fill="none" xmlns="http://www.w3.org/2000/svg">
<path fill-rule="evenodd" clip-rule="evenodd" d="M10.4 0.25C5.01522 0.25 0.649994 4.61522 0.649994 10C0.649994 15.3848 5.01522 19.75 10.4 19.75C15.7848 19.75 20.15 15.3848 20.15 10C20.1443 4.61758 15.7824 0.255684 10.4 0.25ZM5.34499 16.5156C6.4476 14.7912 8.3532 13.7478 10.4 13.7478C12.4468 13.7478 14.3524 14.7912 15.455 16.5156C12.4817 18.828 8.31831 18.828 5.34499 16.5156ZM7.39999 9.25C7.39999 7.59315 8.74314 6.25 10.4 6.25C12.0568 6.25 13.4 7.59315 13.4 9.25C13.4 10.9069 12.0568 12.25 10.4 12.25C8.74314 12.25 7.39999 10.9069 7.39999 9.25ZM16.565 15.4759C15.7285 14.2638 14.5524 13.3261 13.1844 12.7806C14.6906 11.5943 15.2797 9.58375 14.6519 7.77207C14.0242 5.96039 12.3174 4.74548 10.4 4.74548C8.48262 4.74548 6.77584 5.96039 6.14804 7.77207C5.52025 9.58375 6.10936 11.5943 7.61562 12.7806C6.24763 13.3261 5.07146 14.2638 4.23499 15.4759C1.29046 12.1647 1.48751 7.11881 4.68132 4.0473C7.87513 0.975791 12.9249 0.975791 16.1187 4.0473C19.3125 7.11881 19.5095 12.1647 16.565 15.4759Z" fill="#877363"/>
</svg>
