<svg width="20" height="18" viewBox="0 0 20 18" fill="none" xmlns="http://www.w3.org/2000/svg">
<path fill-rule="evenodd" clip-rule="evenodd" d="M4.94998 6.75C4.94998 6.33579 5.28577 6 5.69998 6H14.7C15.1142 6 15.45 6.33579 15.45 6.75C15.45 7.16421 15.1142 7.5 14.7 7.5H5.69998C5.28577 7.5 4.94998 7.16421 4.94998 6.75ZM5.69998 10.5H14.7C15.1142 10.5 15.45 10.1642 15.45 9.75C15.45 9.33579 15.1142 9 14.7 9H5.69998C5.28577 9 4.94998 9.33579 4.94998 9.75C4.94998 10.1642 5.28577 10.5 5.69998 10.5ZM19.95 2.25V16.5C19.9498 16.7599 19.8152 17.0012 19.594 17.1378C19.3729 17.2743 19.0968 17.2866 18.8644 17.1703L16.2 15.8381L13.5356 17.1703C13.3243 17.276 13.0756 17.276 12.8644 17.1703L10.2 15.8381L7.53561 17.1703C7.32434 17.276 7.07562 17.276 6.86436 17.1703L4.19998 15.8381L1.53561 17.1703C1.30318 17.2866 1.0271 17.2743 0.805956 17.1378C0.584809 17.0012 0.45012 16.7599 0.449982 16.5V2.25C0.449982 1.42157 1.12155 0.75 1.94998 0.75H18.45C19.2784 0.75 19.95 1.42157 19.95 2.25ZM18.45 2.25H1.94998V15.2869L3.86436 14.3288C4.07562 14.223 4.32434 14.223 4.53561 14.3288L7.19998 15.6619L9.86436 14.3288C10.0756 14.223 10.3243 14.223 10.5356 14.3288L13.2 15.6619L15.8644 14.3288C16.0756 14.223 16.3243 14.223 16.5356 14.3288L18.45 15.2869V2.25Z" fill="#877363"/>
</svg>
