<svg width="18" height="22" viewBox="0 0 18 22" fill="none" xmlns="http://www.w3.org/2000/svg">
<path fill-rule="evenodd" clip-rule="evenodd" d="M11.05 6.5C12.7069 6.5 14.05 5.15685 14.05 3.5C14.05 1.84315 12.7069 0.5 11.05 0.5C9.39314 0.5 8.05 1.84315 8.05 3.5C8.05 5.15685 9.39314 6.5 11.05 6.5ZM11.05 2C11.8784 2 12.55 2.67157 12.55 3.5C12.55 4.32843 11.8784 5 11.05 5C10.2216 5 9.55 4.32843 9.55 3.5C9.55 2.67157 10.2216 2 11.05 2ZM17.05 12.5C17.05 12.9142 16.7142 13.25 16.3 13.25C12.9897 13.25 11.3359 11.5803 10.0075 10.2388C9.75062 9.97906 9.505 9.7325 9.2575 9.50375L7.99843 12.3988L11.4859 14.8897C11.683 15.0305 11.8 15.2578 11.8 15.5V20.75C11.8 21.1642 11.4642 21.5 11.05 21.5C10.6358 21.5 10.3 21.1642 10.3 20.75V15.8862L7.38718 13.805L4.23812 21.0491C4.11901 21.323 3.8487 21.5001 3.55 21.5C3.44701 21.5002 3.34512 21.4788 3.25093 21.4372C2.87129 21.2721 2.69715 20.8307 2.86187 20.4509L7.93187 8.79125C7.05906 8.63656 5.97062 8.90375 4.67875 9.59562C3.64843 10.1639 2.68681 10.8487 1.81281 11.6366C1.5094 11.9083 1.04453 11.8883 0.765684 11.5913C0.486838 11.2944 0.495966 10.8292 0.786245 10.5434C1.02062 10.3231 6.56968 5.17812 10.0412 8.19219C10.4003 8.50344 10.7425 8.84844 11.0725 9.18312C12.3803 10.5031 13.615 11.75 16.3 11.75C16.7142 11.75 17.05 12.0858 17.05 12.5Z" fill="#877363"/>
</svg>
